<?xml version="1.0" encoding="utf-8"?>
<!-- Generator: Adobe Illustrator 24.1.2, SVG Export Plug-In . SVG Version: 6.00 Build 0)  -->
<svg version="1.1" id="Layer_1" xmlns="http://www.w3.org/2000/svg" xmlns:xlink="http://www.w3.org/1999/xlink" x="0px" y="0px"
	 width="50px" height="50px" viewBox="0 0 50 50" style="enable-background:new 0 0 50 50;" xml:space="preserve">
<style type="text/css">
	.st0{fill:#00DBDE;}
	.st1{clip-path:url(#SVGID_2_);}
	.st2{fill:#FC466B;}
	.st3{fill:#0D0600;}
</style>
<rect y="0" class="st0" width="50" height="50"/>
<g>
	<defs>
		<rect id="SVGID_1_" y="0" width="50" height="50"/>
	</defs>
	<clipPath id="SVGID_2_">
		<use xlink:href="#SVGID_1_"  style="overflow:visible;"/>
	</clipPath>
	<g class="st1">
		<path class="st2" d="M38.4,33.7v-7.6c0-7.9-6.4-14.3-14.3-14.3l0,0c-7.9,0-14.3,6.4-14.3,14.3v7.6c0,6.1-4.9,11-11,11h-5.8v25.1
			h62.3V44.8h-5.8C43.3,44.8,38.4,39.8,38.4,33.7z"/>
		
			<ellipse transform="matrix(1.465654e-02 -0.9999 0.9999 1.465654e-02 -0.7744 47.8977)" class="st3" cx="23.9" cy="24.3" rx="6.8" ry="6.8"/>
	</g>
</g>
<path class="st3" d="M17.4,44.4c0-3.6,2.9-6.5,6.5-6.5c3.6,0,6.5,2.9,6.5,6.5"/>
</svg>
